<svg width="26" height="26" viewBox="0 0 26 26" fill="none" xmlns="http://www.w3.org/2000/svg">
<path opacity="0.2" d="M21.003 4.19672H17.8018C17.3598 4.19672 17.0015 4.55502 17.0015 4.99702V8.19824C17.0015 8.64024 17.3598 8.99855 17.8018 8.99855H21.003C21.445 8.99855 21.8033 8.64024 21.8033 8.19824V4.99702C21.8033 4.55502 21.445 4.19672 21.003 4.19672Z" fill="#009379"/>
<path opacity="0.2" d="M4.99684 4.24197H8.19806C8.61506 4.24197 8.95311 4.58002 8.95311 4.99702V8.19824C8.95311 8.61524 8.61506 8.95329 8.19806 8.95329H4.99684C4.57984 8.95329 4.24179 8.61524 4.24179 8.19824V4.99702C4.24179 4.58002 4.57984 4.24197 4.99684 4.24197Z" fill="#009379" stroke="#009379" stroke-width="0.0905107"/>
<path opacity="0.2" d="M17.8018 17.0467H21.003C21.42 17.0467 21.758 17.3848 21.758 17.8018V21.003C21.758 21.42 21.42 21.758 21.003 21.758H17.8018C17.3848 21.758 17.0467 21.42 17.0467 21.003V17.8018C17.0467 17.3848 17.3848 17.0467 17.8018 17.0467Z" fill="#009379" stroke="#009379" stroke-width="0.0905107"/>
<path opacity="0.2" d="M4.99684 17.0467H8.19806C8.61506 17.0467 8.95311 17.3848 8.95311 17.8018V21.003C8.95311 21.42 8.61506 21.758 8.19806 21.758H4.99684C4.57984 21.758 4.24179 21.42 4.24179 21.003V17.8018C4.24179 17.3848 4.57984 17.0467 4.99684 17.0467Z" fill="#009379" stroke="#009379" stroke-width="0.0905107"/>
<path d="M21.003 4.19672H17.8018C17.3598 4.19672 17.0015 4.55502 17.0015 4.99702V8.19824C17.0015 8.64024 17.3598 8.99855 17.8018 8.99855H21.003C21.445 8.99855 21.8033 8.64024 21.8033 8.19824V4.99702C21.8033 4.55502 21.445 4.19672 21.003 4.19672Z" stroke="#009379" stroke-width="1.44817" stroke-linecap="round" stroke-linejoin="round"/>
<path d="M8.19806 4.19672H4.99684C4.55484 4.19672 4.19653 4.55502 4.19653 4.99702V8.19824C4.19653 8.64024 4.55484 8.99855 4.99684 8.99855H8.19806C8.64005 8.99855 8.99836 8.64024 8.99836 8.19824V4.99702C8.99836 4.55502 8.64005 4.19672 8.19806 4.19672Z" stroke="#009379" stroke-width="1.44817" stroke-linecap="round" stroke-linejoin="round"/>
<path d="M21.003 17.0015H17.8018C17.3598 17.0015 17.0015 17.3598 17.0015 17.8018V21.003C17.0015 21.445 17.3598 21.8033 17.8018 21.8033H21.003C21.445 21.8033 21.8033 21.445 21.8033 21.003V17.8018C21.8033 17.3598 21.445 17.0015 21.003 17.0015Z" stroke="#009379" stroke-width="1.44817" stroke-linecap="round" stroke-linejoin="round"/>
<path d="M8.19806 17.0015H4.99684C4.55484 17.0015 4.19653 17.3598 4.19653 17.8018V21.003C4.19653 21.445 4.55484 21.8033 4.99684 21.8033H8.19806C8.64005 21.8033 8.99836 21.445 8.99836 21.003V17.8018C8.99836 17.3598 8.64005 17.0015 8.19806 17.0015Z" stroke="#009379" stroke-width="1.44817" stroke-linecap="round" stroke-linejoin="round"/>
<path d="M6.59766 17.0016V8.99854" stroke="#009379" stroke-width="1.44817" stroke-linecap="round" stroke-linejoin="round"/>
<path d="M17.0013 19.4025H8.99829" stroke="#009379" stroke-width="1.44817" stroke-linecap="round" stroke-linejoin="round"/>
<path d="M19.4023 8.99854V17.0016" stroke="#009379" stroke-width="1.44817" stroke-linecap="round" stroke-linejoin="round"/>
<path d="M8.99829 6.59753H17.0013" stroke="#009379" stroke-width="1.44817" stroke-linecap="round" stroke-linejoin="round"/>
</svg>
