<svg width="18" height="18" viewBox="0 0 18 18" fill="none" xmlns="http://www.w3.org/2000/svg">
<path fill-rule="evenodd" clip-rule="evenodd" d="M17.5332 9.15724C17.5332 9.73434 17.4745 10.3106 17.3591 10.8724C17.2465 11.4208 17.0799 11.9592 16.8615 12.4739C16.6482 12.9795 16.3836 13.4667 16.0744 13.921C15.7698 14.3725 15.419 14.7961 15.0335 15.1822C14.6473 15.5667 14.2222 15.9166 13.771 16.2224C13.3151 16.5295 12.8272 16.7937 12.3213 17.008C11.8059 17.2252 11.2662 17.3916 10.7183 17.5039C10.1558 17.6196 9.57743 17.6787 8.9995 17.6787C8.42114 17.6787 7.84278 17.6196 7.28109 17.5039C6.73232 17.3916 6.19271 17.2252 5.67767 17.008C5.17182 16.7937 4.68344 16.5295 4.2276 16.2224C3.77633 15.9166 3.35131 15.5667 2.96587 15.1822C2.58003 14.7961 2.22915 14.3725 1.92414 13.921C1.61663 13.4667 1.35159 12.9794 1.13743 12.4739C0.91906 11.9592 0.751992 11.4208 0.639065 10.8724C0.524903 10.3106 0.466553 9.73434 0.466553 9.15724C0.466553 8.57972 0.52487 8.00219 0.639099 7.44168C0.752025 6.89327 0.919094 6.35403 1.13747 5.84018C1.35163 5.33422 1.61666 4.84658 1.92418 4.39219C2.22919 3.94034 2.58006 3.51757 2.9659 3.13102C3.35134 2.74653 3.77636 2.39747 4.22763 2.09206C4.68348 1.78372 5.17186 1.51954 5.67771 1.30482C6.19274 1.08716 6.73232 0.920336 7.28112 0.80884C7.84282 0.694008 8.42118 0.635742 8.99954 0.635742C9.57746 0.635742 10.1558 0.694008 10.7184 0.80884C11.2663 0.920369 11.8059 1.0872 12.3214 1.30482C12.8272 1.51951 13.3152 1.78372 13.771 2.09206C14.2223 2.39747 14.6473 2.74653 15.0336 3.13102C15.419 3.51757 15.7699 3.94034 16.0745 4.39219C16.3836 4.84658 16.6482 5.33426 16.8615 5.84018C17.0799 6.35403 17.2465 6.89327 17.3591 7.44168C17.4745 8.00219 17.5332 8.57972 17.5332 9.15724ZM5.89014 2.57512C3.85793 3.5334 2.34119 5.40328 1.86824 7.65682C2.06036 7.65849 5.09718 7.69678 8.5961 6.76845C7.3348 4.53072 5.98723 2.70456 5.89014 2.57512ZM9.19987 7.88902C5.44761 9.01075 1.84699 8.93004 1.71783 8.92507C1.71573 9.00328 1.71199 9.07899 1.71199 9.15724C1.71199 11.0267 2.41827 12.731 3.57917 14.0196C3.57666 14.0159 5.57096 10.4829 9.50365 9.213C9.59864 9.18138 9.69533 9.15307 9.79116 9.12562C9.60826 8.71205 9.40863 8.29762 9.19987 7.88902ZM13.8122 3.69566C12.5292 2.56596 10.8446 1.8807 8.99948 1.8807C8.40736 1.8807 7.83274 1.95228 7.2823 2.08459C7.39145 2.23107 8.7603 4.04436 10.0066 6.32948C12.7563 5.3001 13.7943 3.72228 13.8122 3.69566ZM10.2879 10.3314C10.2717 10.3368 10.2554 10.3414 10.2396 10.3472C5.93984 11.844 4.53571 14.8605 4.52052 14.8934C5.75769 15.8542 7.30944 16.4338 8.99953 16.4338C10.0087 16.4338 10.97 16.2286 11.8446 15.8571C11.7367 15.2213 11.3134 12.9927 10.2879 10.3314ZM13.0718 15.1922C14.7081 14.0896 15.8702 12.3387 16.1944 10.3106C16.0444 10.2623 14.0055 9.6178 11.6533 9.99438C12.6092 12.6174 12.9976 14.7536 13.0718 15.1922ZM10.5675 7.41382C10.7367 7.76085 10.9005 8.11405 11.0517 8.46902C11.1055 8.59635 11.158 8.72119 11.2092 8.84599C13.7127 8.53142 16.179 9.06068 16.2845 9.08229C16.2678 7.35722 15.6498 5.774 14.6273 4.5345C14.6136 4.55401 13.4448 6.24043 10.5675 7.41382Z" fill="white"/>
</svg>
