<svg width="18" height="18" viewBox="0 0 18 18" fill="none" xmlns="http://www.w3.org/2000/svg">
<path fill-rule="evenodd" clip-rule="evenodd" d="M9.00069 0.635742C6.68315 0.635742 6.3923 0.645876 5.48207 0.687298C4.57362 0.728899 3.95352 0.872722 3.41094 1.08375C2.84969 1.3017 2.37359 1.59326 1.89928 2.06776C1.42461 2.54207 1.13305 3.01817 0.91438 3.57924C0.702822 4.122 0.55882 4.74227 0.517931 5.65037C0.47722 6.5606 0.466553 6.85163 0.466553 9.16916C0.466553 11.4867 0.476864 11.7767 0.518109 12.6869C0.559887 13.5953 0.703711 14.2154 0.914557 14.758C1.13269 15.3193 1.42425 15.7954 1.89875 16.2697C2.37288 16.7444 2.84898 17.0366 3.40987 17.2546C3.95281 17.4656 4.57308 17.6094 5.48136 17.651C6.39159 17.6925 6.68226 17.7026 8.99962 17.7026C11.3173 17.7026 11.6073 17.6925 12.5175 17.651C13.426 17.6094 14.0468 17.4656 14.5897 17.2546C15.1508 17.0366 15.6262 16.7444 16.1003 16.2697C16.575 15.7954 16.8665 15.3193 17.0852 14.7582C17.295 14.2154 17.439 13.5952 17.4817 12.6871C17.5226 11.7768 17.5332 11.4867 17.5332 9.16916C17.5332 6.85163 17.5226 6.56078 17.4817 5.65055C17.439 4.7421 17.295 4.122 17.0852 3.57942C16.8665 3.01817 16.575 2.54207 16.1003 2.06776C15.6256 1.59309 15.151 1.30153 14.5892 1.08375C14.0452 0.872722 13.4247 0.728899 12.5163 0.687298C11.606 0.645876 11.3163 0.635742 8.99802 0.635742H9.00069ZM8.23513 2.17351C8.46233 2.17316 8.71585 2.17351 9.00065 2.17351C11.2791 2.17351 11.5491 2.18169 12.4489 2.22258C13.2809 2.26062 13.7324 2.39965 14.0332 2.51645C14.4315 2.67112 14.7154 2.85601 15.0139 3.15468C15.3125 3.45335 15.4974 3.73779 15.6525 4.13602C15.7693 4.43647 15.9085 4.88803 15.9463 5.72004C15.9872 6.6196 15.9961 6.88983 15.9961 9.16719C15.9961 11.4445 15.9872 11.7148 15.9463 12.6143C15.9083 13.4463 15.7693 13.8979 15.6525 14.1983C15.4978 14.5966 15.3125 14.8801 15.0139 15.1786C14.7152 15.4773 14.4316 15.6622 14.0332 15.8169C13.7328 15.9342 13.2809 16.0729 12.4489 16.1109C11.5493 16.1518 11.2791 16.1607 9.00065 16.1607C6.72205 16.1607 6.452 16.1518 5.55244 16.1109C4.72043 16.0725 4.26887 15.9335 3.96789 15.8167C3.56966 15.662 3.28521 15.4771 2.98654 15.1784C2.68787 14.8798 2.50298 14.596 2.34796 14.1976C2.23116 13.8972 2.09196 13.4456 2.05409 12.6136C2.0132 11.7141 2.00502 11.4438 2.00502 9.16505C2.00502 6.88627 2.0132 6.61747 2.05409 5.7179C2.09213 4.8859 2.23116 4.43434 2.34796 4.13353C2.50263 3.73531 2.68787 3.45086 2.98654 3.15219C3.28521 2.85352 3.56966 2.66863 3.96789 2.5136C4.26869 2.39627 4.72043 2.2576 5.55244 2.21938C6.33964 2.18382 6.64471 2.17316 8.23513 2.17138V2.17351ZM13.5557 3.59042C12.9904 3.59042 12.5317 4.04856 12.5317 4.61407C12.5317 5.17941 12.9904 5.63808 13.5557 5.63808C14.1211 5.63808 14.5797 5.17941 14.5797 4.61407C14.5797 4.04873 14.1211 3.59042 13.5557 3.59042ZM9.0007 4.78687C6.58059 4.78687 4.61843 6.74903 4.61843 9.16914C4.61843 11.5893 6.58059 13.5505 9.0007 13.5505C11.4208 13.5505 13.3823 11.5893 13.3823 9.16914C13.3823 6.74903 11.4208 4.78687 9.0007 4.78687ZM9.00067 6.32467C10.5715 6.32467 11.8451 7.5981 11.8451 9.16914C11.8451 10.74 10.5715 12.0136 9.00067 12.0136C7.42963 12.0136 6.15619 10.74 6.15619 9.16914C6.15619 7.5981 7.42963 6.32467 9.00067 6.32467Z" fill="white"/>
</svg>
