<svg width="26" height="26" viewBox="0 0 26 26" fill="none" xmlns="http://www.w3.org/2000/svg">
<path opacity="0.2" d="M3.50629 7.65802C3.43379 7.78253 3.39581 7.92411 3.39624 8.06818V17.9319C3.39701 18.0744 3.43533 18.2142 3.50734 18.3371C3.57935 18.4601 3.6825 18.5618 3.8064 18.6322L12.6098 23.5841C12.7284 23.6519 12.8632 23.6865 12.9999 23.6841L13.0899 13.0001L3.50629 7.65802Z" fill="#009379"/>
<path d="M22.6036 17.932V8.06822C22.6028 7.92574 22.5645 7.78598 22.4925 7.66304C22.4205 7.54009 22.3173 7.43831 22.1934 7.36795L13.39 2.41606C13.2714 2.34758 13.1369 2.31152 12.9999 2.31152C12.8629 2.31152 12.7284 2.34758 12.6097 2.41606L3.8064 7.36795C3.6825 7.43831 3.57935 7.54009 3.50734 7.66304C3.43533 7.78598 3.39701 7.92574 3.39624 8.06822V17.932C3.39701 18.0745 3.43533 18.2142 3.50734 18.3372C3.57935 18.4601 3.6825 18.5619 3.8064 18.6322L12.6097 23.5841C12.7284 23.6526 12.8629 23.6887 12.9999 23.6887C13.1369 23.6887 13.2714 23.6526 13.39 23.5841L22.1934 18.6322C22.3173 18.5619 22.4205 18.4601 22.4925 18.3372C22.5645 18.2142 22.6028 18.0745 22.6036 17.932V17.932Z" stroke="#009379" stroke-width="1.44817" stroke-linecap="round" stroke-linejoin="round"/>
<path d="M17.9017 15.4509V10.249L8.198 4.89691" stroke="#009379" stroke-width="1.44817" stroke-linecap="round" stroke-linejoin="round"/>
<path d="M22.4936 7.65802L13.09 13.0001L3.50635 7.65802" stroke="#009379" stroke-width="1.44817" stroke-linecap="round" stroke-linejoin="round"/>
<path d="M13.09 13.0001L13 23.6842" stroke="#009379" stroke-width="1.44817" stroke-linecap="round" stroke-linejoin="round"/>
</svg>
