<svg width="251" height="26" viewBox="0 0 251 26" fill="none" xmlns="http://www.w3.org/2000/svg">
<path d="M68.0077 20.2404L73.8226 23.9325C74.5725 24.4055 75.4956 23.7017 75.2763 22.8364L73.5919 16.2138C73.5463 16.0302 73.5535 15.8375 73.6127 15.6579C73.6719 15.4783 73.7807 15.319 73.9264 15.1985L79.1414 10.8488C79.8222 10.2835 79.476 9.14125 78.5876 9.08356L71.7804 8.64513C71.5947 8.63432 71.4161 8.56965 71.2666 8.459C71.117 8.34836 71.0029 8.19654 70.9382 8.0221L68.3999 1.63027C68.3327 1.44556 68.2103 1.28599 68.0493 1.17324C67.8883 1.06048 67.6966 1 67.5 1C67.3034 1 67.1117 1.06048 66.9507 1.17324C66.7897 1.28599 66.6673 1.44556 66.6001 1.63027L64.0618 8.0221C63.9971 8.19654 63.883 8.34836 63.7334 8.459C63.5839 8.56965 63.4053 8.63432 63.2196 8.64513L56.4124 9.08356C55.524 9.14125 55.1778 10.2835 55.8586 10.8488L61.0736 15.1985C61.2193 15.319 61.3281 15.4783 61.3873 15.6579C61.4465 15.8375 61.4537 16.0302 61.4081 16.2138L59.8506 22.3518C59.5852 23.3902 60.6928 24.2324 61.5812 23.6671L66.9923 20.2404C67.1441 20.1439 67.3202 20.0927 67.5 20.0927C67.6798 20.0927 67.8559 20.1439 68.0077 20.2404Z" fill="#F8D57E" stroke="#F8D57E" stroke-width="2" stroke-linecap="round" stroke-linejoin="round"/>
<path d="M97.0077 20.2404L102.823 23.9325C103.573 24.4055 104.496 23.7017 104.276 22.8364L102.592 16.2138C102.546 16.0302 102.554 15.8375 102.613 15.6579C102.672 15.4783 102.781 15.319 102.926 15.1985L108.141 10.8488C108.822 10.2835 108.476 9.14125 107.588 9.08356L100.78 8.64513C100.595 8.63432 100.416 8.56965 100.267 8.459C100.117 8.34836 100.003 8.19654 99.9382 8.0221L97.3999 1.63027C97.3327 1.44556 97.2103 1.28599 97.0493 1.17324C96.8883 1.06048 96.6966 1 96.5 1C96.3034 1 96.1117 1.06048 95.9507 1.17324C95.7897 1.28599 95.6673 1.44556 95.6001 1.63027L93.0618 8.0221C92.9971 8.19654 92.883 8.34836 92.7334 8.459C92.5839 8.56965 92.4053 8.63432 92.2196 8.64513L85.4124 9.08356C84.524 9.14125 84.1778 10.2835 84.8586 10.8488L90.0736 15.1985C90.2193 15.319 90.3281 15.4783 90.3873 15.6579C90.4465 15.8375 90.4537 16.0302 90.4081 16.2138L88.8506 22.3518C88.5852 23.3902 89.6928 24.2324 90.5812 23.6671L95.9923 20.2404C96.1441 20.1439 96.3202 20.0927 96.5 20.0927C96.6798 20.0927 96.8559 20.1439 97.0077 20.2404Z" fill="#F8D57E" stroke="#F8D57E" stroke-width="2" stroke-linecap="round" stroke-linejoin="round"/>
<path d="M126.008 20.2404L131.823 23.9325C132.573 24.4055 133.496 23.7017 133.276 22.8364L131.592 16.2138C131.546 16.0302 131.554 15.8375 131.613 15.6579C131.672 15.4783 131.781 15.319 131.926 15.1985L137.141 10.8488C137.822 10.2835 137.476 9.14125 136.588 9.08356L129.78 8.64513C129.595 8.63432 129.416 8.56965 129.267 8.459C129.117 8.34836 129.003 8.19654 128.938 8.0221L126.4 1.63027C126.333 1.44556 126.21 1.28599 126.049 1.17324C125.888 1.06048 125.697 1 125.5 1C125.303 1 125.112 1.06048 124.951 1.17324C124.79 1.28599 124.667 1.44556 124.6 1.63027L122.062 8.0221C121.997 8.19654 121.883 8.34836 121.733 8.459C121.584 8.56965 121.405 8.63432 121.22 8.64513L114.412 9.08356C113.524 9.14125 113.178 10.2835 113.859 10.8488L119.074 15.1985C119.219 15.319 119.328 15.4783 119.387 15.6579C119.446 15.8375 119.454 16.0302 119.408 16.2138L117.851 22.3518C117.585 23.3902 118.693 24.2324 119.581 23.6671L124.992 20.2404C125.144 20.1439 125.32 20.0927 125.5 20.0927C125.68 20.0927 125.856 20.1439 126.008 20.2404Z" fill="#F8D57E" stroke="#F8D57E" stroke-width="2" stroke-linecap="round" stroke-linejoin="round"/>
<path d="M155.008 20.2404L160.823 23.9325C161.573 24.4055 162.496 23.7017 162.276 22.8364L160.592 16.2138C160.546 16.0302 160.554 15.8375 160.613 15.6579C160.672 15.4783 160.781 15.319 160.926 15.1985L166.141 10.8488C166.822 10.2835 166.476 9.14125 165.588 9.08356L158.78 8.64513C158.595 8.63432 158.416 8.56965 158.267 8.459C158.117 8.34836 158.003 8.19654 157.938 8.0221L155.4 1.63027C155.333 1.44556 155.21 1.28599 155.049 1.17324C154.888 1.06048 154.697 1 154.5 1C154.303 1 154.112 1.06048 153.951 1.17324C153.79 1.28599 153.667 1.44556 153.6 1.63027L151.062 8.0221C150.997 8.19654 150.883 8.34836 150.733 8.459C150.584 8.56965 150.405 8.63432 150.22 8.64513L143.412 9.08356C142.524 9.14125 142.178 10.2835 142.859 10.8488L148.074 15.1985C148.219 15.319 148.328 15.4783 148.387 15.6579C148.446 15.8375 148.454 16.0302 148.408 16.2138L146.851 22.3518C146.585 23.3902 147.693 24.2324 148.581 23.6671L153.992 20.2404C154.144 20.1439 154.32 20.0927 154.5 20.0927C154.68 20.0927 154.856 20.1439 155.008 20.2404Z" fill="#F8D57E" stroke="#F8D57E" stroke-width="2" stroke-linecap="round" stroke-linejoin="round"/>
<path d="M184.008 20.2404L189.823 23.9325C190.573 24.4055 191.496 23.7017 191.276 22.8364L189.592 16.2138C189.546 16.0302 189.554 15.8375 189.613 15.6579C189.672 15.4783 189.781 15.319 189.926 15.1985L195.141 10.8488C195.822 10.2835 195.476 9.14125 194.588 9.08356L187.78 8.64513C187.595 8.63432 187.416 8.56965 187.267 8.459C187.117 8.34836 187.003 8.19654 186.938 8.0221L184.4 1.63027C184.333 1.44556 184.21 1.28599 184.049 1.17324C183.888 1.06048 183.697 1 183.5 1C183.303 1 183.112 1.06048 182.951 1.17324C182.79 1.28599 182.667 1.44556 182.6 1.63027L180.062 8.0221C179.997 8.19654 179.883 8.34836 179.733 8.459C179.584 8.56965 179.405 8.63432 179.22 8.64513L172.412 9.08356C171.524 9.14125 171.178 10.2835 171.859 10.8488L177.074 15.1985C177.219 15.319 177.328 15.4783 177.387 15.6579C177.446 15.8375 177.454 16.0302 177.408 16.2138L175.851 22.3518C175.585 23.3902 176.693 24.2324 177.581 23.6671L182.992 20.2404C183.144 20.1439 183.32 20.0927 183.5 20.0927C183.68 20.0927 183.856 20.1439 184.008 20.2404Z" fill="#F8D57E" stroke="#F8D57E" stroke-width="2" stroke-linecap="round" stroke-linejoin="round"/>
</svg>
