<svg width="281" height="27" viewBox="0 0 281 27" fill="none" xmlns="http://www.w3.org/2000/svg">
<path d="M13.5077 21.1982L19.3226 24.8902C20.0725 25.3633 20.9956 24.6595 20.7763 23.7941L19.0919 17.1716C19.0463 16.988 19.0535 16.7953 19.1127 16.6157C19.1719 16.436 19.2807 16.2768 19.4264 16.1563L24.6414 11.8066C25.3222 11.2412 24.976 10.099 24.0876 10.0413L17.2804 9.60289C17.0947 9.59209 16.9161 9.52741 16.7666 9.41677C16.617 9.30612 16.5029 9.1543 16.4382 8.97986L13.8999 2.58803C13.8327 2.40332 13.7103 2.24376 13.5493 2.131C13.3883 2.01825 13.1966 1.95776 13 1.95776C12.8034 1.95776 12.6117 2.01825 12.4507 2.131C12.2897 2.24376 12.1673 2.40332 12.1001 2.58803L9.56179 8.97986C9.4971 9.1543 9.383 9.30612 9.23343 9.41677C9.08385 9.52741 8.90529 9.59209 8.71955 9.60289L1.91237 10.0413C1.02397 10.099 0.677844 11.2412 1.35856 11.8066L6.57356 16.1563C6.71932 16.2768 6.82806 16.436 6.88726 16.6157C6.94645 16.7953 6.9537 16.988 6.90815 17.1716L5.35057 23.3096C5.08521 24.3479 6.19282 25.1902 7.08121 24.6248L12.4923 21.1982C12.6441 21.1017 12.8202 21.0504 13 21.0504C13.1798 21.0504 13.3559 21.1017 13.5077 21.1982Z" fill="#F8D57E" stroke="#F8D57E" stroke-width="2" stroke-linecap="round" stroke-linejoin="round"/>
<path d="M42.5077 21.1982L48.3226 24.8902C49.0725 25.3633 49.9956 24.6595 49.7763 23.7941L48.0919 17.1716C48.0463 16.988 48.0535 16.7953 48.1127 16.6157C48.1719 16.436 48.2807 16.2768 48.4264 16.1563L53.6414 11.8066C54.3222 11.2412 53.976 10.099 53.0876 10.0413L46.2804 9.60289C46.0947 9.59209 45.9161 9.52741 45.7666 9.41677C45.617 9.30612 45.5029 9.1543 45.4382 8.97986L42.8999 2.58803C42.8327 2.40332 42.7103 2.24376 42.5493 2.131C42.3883 2.01825 42.1966 1.95776 42 1.95776C41.8034 1.95776 41.6117 2.01825 41.4507 2.131C41.2897 2.24376 41.1673 2.40332 41.1001 2.58803L38.5618 8.97986C38.4971 9.1543 38.383 9.30612 38.2334 9.41677C38.0839 9.52741 37.9053 9.59209 37.7196 9.60289L30.9124 10.0413C30.024 10.099 29.6778 11.2412 30.3586 11.8066L35.5736 16.1563C35.7193 16.2768 35.8281 16.436 35.8873 16.6157C35.9465 16.7953 35.9537 16.988 35.9081 17.1716L34.3506 23.3096C34.0852 24.3479 35.1928 25.1902 36.0812 24.6248L41.4923 21.1982C41.6441 21.1017 41.8202 21.0504 42 21.0504C42.1798 21.0504 42.3559 21.1017 42.5077 21.1982Z" fill="#F8D57E" stroke="#F8D57E" stroke-width="2" stroke-linecap="round" stroke-linejoin="round"/>
<path d="M71.5077 21.1982L77.3226 24.8902C78.0725 25.3633 78.9956 24.6595 78.7763 23.7941L77.0919 17.1716C77.0463 16.988 77.0535 16.7953 77.1127 16.6157C77.1719 16.436 77.2807 16.2768 77.4264 16.1563L82.6414 11.8066C83.3222 11.2412 82.976 10.099 82.0876 10.0413L75.2804 9.60289C75.0947 9.59209 74.9161 9.52741 74.7666 9.41677C74.617 9.30612 74.5029 9.1543 74.4382 8.97986L71.8999 2.58803C71.8327 2.40332 71.7103 2.24376 71.5493 2.131C71.3883 2.01825 71.1966 1.95776 71 1.95776C70.8034 1.95776 70.6117 2.01825 70.4507 2.131C70.2897 2.24376 70.1673 2.40332 70.1001 2.58803L67.5618 8.97986C67.4971 9.1543 67.383 9.30612 67.2334 9.41677C67.0839 9.52741 66.9053 9.59209 66.7196 9.60289L59.9124 10.0413C59.024 10.099 58.6778 11.2412 59.3586 11.8066L64.5736 16.1563C64.7193 16.2768 64.8281 16.436 64.8873 16.6157C64.9465 16.7953 64.9537 16.988 64.9081 17.1716L63.3506 23.3096C63.0852 24.3479 64.1928 25.1902 65.0812 24.6248L70.4923 21.1982C70.6441 21.1017 70.8202 21.0504 71 21.0504C71.1798 21.0504 71.3559 21.1017 71.5077 21.1982Z" fill="#F8D57E" stroke="#F8D57E" stroke-width="2" stroke-linecap="round" stroke-linejoin="round"/>
<path d="M100.508 21.1982L106.323 24.8902C107.073 25.3633 107.996 24.6595 107.776 23.7941L106.092 17.1716C106.046 16.988 106.054 16.7953 106.113 16.6157C106.172 16.436 106.281 16.2768 106.426 16.1563L111.641 11.8066C112.322 11.2412 111.976 10.099 111.088 10.0413L104.28 9.60289C104.095 9.59209 103.916 9.52741 103.767 9.41677C103.617 9.30612 103.503 9.1543 103.438 8.97986L100.9 2.58803C100.833 2.40332 100.71 2.24376 100.549 2.131C100.388 2.01825 100.197 1.95776 100 1.95776C99.8034 1.95776 99.6117 2.01825 99.4507 2.131C99.2897 2.24376 99.1673 2.40332 99.1001 2.58803L96.5618 8.97986C96.4971 9.1543 96.383 9.30612 96.2334 9.41677C96.0839 9.52741 95.9053 9.59209 95.7196 9.60289L88.9124 10.0413C88.024 10.099 87.6778 11.2412 88.3586 11.8066L93.5736 16.1563C93.7193 16.2768 93.8281 16.436 93.8873 16.6157C93.9465 16.7953 93.9537 16.988 93.9081 17.1716L92.3506 23.3096C92.0852 24.3479 93.1928 25.1902 94.0812 24.6248L99.4923 21.1982C99.6441 21.1017 99.8202 21.0504 100 21.0504C100.18 21.0504 100.356 21.1017 100.508 21.1982Z" fill="#F8D57E" stroke="#F8D57E" stroke-width="2" stroke-linecap="round" stroke-linejoin="round"/>
<path d="M129.508 21.1982L135.323 24.8902C136.073 25.3633 136.996 24.6595 136.776 23.7941L135.092 17.1716C135.046 16.988 135.054 16.7953 135.113 16.6157C135.172 16.436 135.281 16.2768 135.426 16.1563L140.641 11.8066C141.322 11.2412 140.976 10.099 140.088 10.0413L133.28 9.60289C133.095 9.59209 132.916 9.52741 132.767 9.41677C132.617 9.30612 132.503 9.1543 132.438 8.97986L129.9 2.58803C129.833 2.40332 129.71 2.24376 129.549 2.131C129.388 2.01825 129.197 1.95776 129 1.95776C128.803 1.95776 128.612 2.01825 128.451 2.131C128.29 2.24376 128.167 2.40332 128.1 2.58803L125.562 8.97986C125.497 9.1543 125.383 9.30612 125.233 9.41677C125.084 9.52741 124.905 9.59209 124.72 9.60289L117.912 10.0413C117.024 10.099 116.678 11.2412 117.359 11.8066L122.574 16.1563C122.719 16.2768 122.828 16.436 122.887 16.6157C122.946 16.7953 122.954 16.988 122.908 17.1716L121.351 23.3096C121.085 24.3479 122.193 25.1902 123.081 24.6248L128.492 21.1982C128.644 21.1017 128.82 21.0504 129 21.0504C129.18 21.0504 129.356 21.1017 129.508 21.1982Z" fill="#F8D57E" stroke="#F8D57E" stroke-width="2" stroke-linecap="round" stroke-linejoin="round"/>
</svg>
