<svg width="251" height="26" viewBox="0 0 251 26" fill="none" xmlns="http://www.w3.org/2000/svg">
<path d="M68.0077 20.3249L73.8226 24.0169C74.5725 24.49 75.4956 23.7862 75.2763 22.9209L73.5919 16.2983C73.5463 16.1147 73.5535 15.922 73.6127 15.7424C73.6719 15.5627 73.7807 15.4035 73.9264 15.283L79.1414 10.9333C79.8222 10.3679 79.476 9.22572 78.5876 9.16803L71.7804 8.7296C71.5947 8.7188 71.4161 8.65412 71.2666 8.54348C71.117 8.43283 71.0029 8.28101 70.9382 8.10657L68.3999 1.71474C68.3327 1.53003 68.2103 1.37046 68.0493 1.25771C67.8883 1.14496 67.6966 1.08447 67.5 1.08447C67.3034 1.08447 67.1117 1.14496 66.9507 1.25771C66.7897 1.37046 66.6673 1.53003 66.6001 1.71474L64.0618 8.10657C63.9971 8.28101 63.883 8.43283 63.7334 8.54348C63.5839 8.65412 63.4053 8.7188 63.2196 8.7296L56.4124 9.16803C55.524 9.22572 55.1778 10.3679 55.8586 10.9333L61.0736 15.283C61.2193 15.4035 61.3281 15.5627 61.3873 15.7424C61.4465 15.922 61.4537 16.1147 61.4081 16.2983L59.8506 22.4363C59.5852 23.4747 60.6928 24.3169 61.5812 23.7516L66.9923 20.3249C67.1441 20.2284 67.3202 20.1772 67.5 20.1772C67.6798 20.1772 67.8559 20.2284 68.0077 20.3249Z" fill="#F8D57E" stroke="#F8D57E" stroke-width="2" stroke-linecap="round" stroke-linejoin="round"/>
<path d="M97.0077 20.3249L102.823 24.0169C103.573 24.49 104.496 23.7862 104.276 22.9209L102.592 16.2983C102.546 16.1147 102.554 15.922 102.613 15.7424C102.672 15.5627 102.781 15.4035 102.926 15.283L108.141 10.9333C108.822 10.3679 108.476 9.22572 107.588 9.16803L100.78 8.7296C100.595 8.7188 100.416 8.65412 100.267 8.54348C100.117 8.43283 100.003 8.28101 99.9382 8.10657L97.3999 1.71474C97.3327 1.53003 97.2103 1.37046 97.0493 1.25771C96.8883 1.14496 96.6966 1.08447 96.5 1.08447C96.3034 1.08447 96.1117 1.14496 95.9507 1.25771C95.7897 1.37046 95.6673 1.53003 95.6001 1.71474L93.0618 8.10657C92.9971 8.28101 92.883 8.43283 92.7334 8.54348C92.5839 8.65412 92.4053 8.7188 92.2196 8.7296L85.4124 9.16803C84.524 9.22572 84.1778 10.3679 84.8586 10.9333L90.0736 15.283C90.2193 15.4035 90.3281 15.5627 90.3873 15.7424C90.4465 15.922 90.4537 16.1147 90.4081 16.2983L88.8506 22.4363C88.5852 23.4747 89.6928 24.3169 90.5812 23.7516L95.9923 20.3249C96.1441 20.2284 96.3202 20.1772 96.5 20.1772C96.6798 20.1772 96.8559 20.2284 97.0077 20.3249Z" fill="#F8D57E" stroke="#F8D57E" stroke-width="2" stroke-linecap="round" stroke-linejoin="round"/>
<path d="M126.008 20.3249L131.823 24.0169C132.573 24.49 133.496 23.7862 133.276 22.9209L131.592 16.2983C131.546 16.1147 131.554 15.922 131.613 15.7424C131.672 15.5627 131.781 15.4035 131.926 15.283L137.141 10.9333C137.822 10.3679 137.476 9.22572 136.588 9.16803L129.78 8.7296C129.595 8.7188 129.416 8.65412 129.267 8.54348C129.117 8.43283 129.003 8.28101 128.938 8.10657L126.4 1.71474C126.333 1.53003 126.21 1.37046 126.049 1.25771C125.888 1.14496 125.697 1.08447 125.5 1.08447C125.303 1.08447 125.112 1.14496 124.951 1.25771C124.79 1.37046 124.667 1.53003 124.6 1.71474L122.062 8.10657C121.997 8.28101 121.883 8.43283 121.733 8.54348C121.584 8.65412 121.405 8.7188 121.22 8.7296L114.412 9.16803C113.524 9.22572 113.178 10.3679 113.859 10.9333L119.074 15.283C119.219 15.4035 119.328 15.5627 119.387 15.7424C119.446 15.922 119.454 16.1147 119.408 16.2983L117.851 22.4363C117.585 23.4747 118.693 24.3169 119.581 23.7516L124.992 20.3249C125.144 20.2284 125.32 20.1772 125.5 20.1772C125.68 20.1772 125.856 20.2284 126.008 20.3249Z" fill="#F8D57E" stroke="#F8D57E" stroke-width="2" stroke-linecap="round" stroke-linejoin="round"/>
<path d="M155.008 20.3249L160.823 24.0169C161.573 24.49 162.496 23.7862 162.276 22.9209L160.592 16.2983C160.546 16.1147 160.554 15.922 160.613 15.7424C160.672 15.5627 160.781 15.4035 160.926 15.283L166.141 10.9333C166.822 10.3679 166.476 9.22572 165.588 9.16803L158.78 8.7296C158.595 8.7188 158.416 8.65412 158.267 8.54348C158.117 8.43283 158.003 8.28101 157.938 8.10657L155.4 1.71474C155.333 1.53003 155.21 1.37046 155.049 1.25771C154.888 1.14496 154.697 1.08447 154.5 1.08447C154.303 1.08447 154.112 1.14496 153.951 1.25771C153.79 1.37046 153.667 1.53003 153.6 1.71474L151.062 8.10657C150.997 8.28101 150.883 8.43283 150.733 8.54348C150.584 8.65412 150.405 8.7188 150.22 8.7296L143.412 9.16803C142.524 9.22572 142.178 10.3679 142.859 10.9333L148.074 15.283C148.219 15.4035 148.328 15.5627 148.387 15.7424C148.446 15.922 148.454 16.1147 148.408 16.2983L146.851 22.4363C146.585 23.4747 147.693 24.3169 148.581 23.7516L153.992 20.3249C154.144 20.2284 154.32 20.1772 154.5 20.1772C154.68 20.1772 154.856 20.2284 155.008 20.3249Z" fill="#F8D57E" stroke="#F8D57E" stroke-width="2" stroke-linecap="round" stroke-linejoin="round"/>
<path d="M184.008 20.3249L189.823 24.0169C190.573 24.49 191.496 23.7862 191.276 22.9209L189.592 16.2983C189.546 16.1147 189.554 15.922 189.613 15.7424C189.672 15.5627 189.781 15.4035 189.926 15.283L195.141 10.9333C195.822 10.3679 195.476 9.22572 194.588 9.16803L187.78 8.7296C187.595 8.7188 187.416 8.65412 187.267 8.54348C187.117 8.43283 187.003 8.28101 186.938 8.10657L184.4 1.71474C184.333 1.53003 184.21 1.37046 184.049 1.25771C183.888 1.14496 183.697 1.08447 183.5 1.08447C183.303 1.08447 183.112 1.14496 182.951 1.25771C182.79 1.37046 182.667 1.53003 182.6 1.71474L180.062 8.10657C179.997 8.28101 179.883 8.43283 179.733 8.54348C179.584 8.65412 179.405 8.7188 179.22 8.7296L172.412 9.16803C171.524 9.22572 171.178 10.3679 171.859 10.9333L177.074 15.283C177.219 15.4035 177.328 15.5627 177.387 15.7424C177.446 15.922 177.454 16.1147 177.408 16.2983L175.851 22.4363C175.585 23.4747 176.693 24.3169 177.581 23.7516L182.992 20.3249C183.144 20.2284 183.32 20.1772 183.5 20.1772C183.68 20.1772 183.856 20.2284 184.008 20.3249Z" fill="#F8D57E" stroke="#F8D57E" stroke-width="2" stroke-linecap="round" stroke-linejoin="round"/>
</svg>
