<svg width="16" height="14" viewBox="0 0 16 14" fill="none" xmlns="http://www.w3.org/2000/svg">
<path fill-rule="evenodd" clip-rule="evenodd" d="M7.5208 4.17404L7.55438 4.72768L6.99479 4.65989C4.95791 4.40002 3.17843 3.51872 1.66756 2.03859L0.928908 1.30417L0.73865 1.84651C0.33575 3.05547 0.593158 4.33223 1.43253 5.19093C1.8802 5.66547 1.77948 5.73326 1.00725 5.4508C0.73865 5.36041 0.503625 5.29261 0.481242 5.32651C0.4029 5.4056 0.6715 6.43378 0.884142 6.84054C1.17513 7.40547 1.76828 7.95911 2.4174 8.28677L2.96579 8.54664L2.31668 8.55794C1.68994 8.55794 1.66756 8.56924 1.73471 8.80651C1.95854 9.54093 2.84268 10.3205 3.82755 10.6595L4.52143 10.8968L3.91708 11.2583C3.02175 11.7781 1.96973 12.0718 0.917717 12.0944C0.414092 12.1057 0 12.1509 0 12.1848C0 12.2978 1.36538 12.9305 2.15999 13.1791C4.54382 13.9135 7.37531 13.5972 9.50173 12.343C11.0126 11.4504 12.5235 9.67651 13.2286 7.95911C13.6091 7.04391 13.9896 5.37171 13.9896 4.5695C13.9896 4.04976 14.0232 3.98197 14.6499 3.36054C15.0192 2.99898 15.3662 2.60352 15.4333 2.49054C15.5452 2.27586 15.534 2.27586 14.9633 2.46794C14.012 2.8069 13.8777 2.76171 14.3477 2.25327C14.6947 1.89171 15.1088 1.23638 15.1088 1.0443C15.1088 1.01041 14.9409 1.0669 14.7506 1.16859C14.5492 1.28158 14.1015 1.45106 13.7658 1.55275L13.1614 1.74482L12.613 1.37197C12.3108 1.16859 11.8856 0.942616 11.6617 0.874824C11.0909 0.716642 10.218 0.73924 9.70318 0.920019C8.30422 1.42846 7.42008 2.73911 7.5208 4.17404Z" fill="white"/>
</svg>
