<svg width="24" height="25" viewBox="0 0 24 25" fill="none" xmlns="http://www.w3.org/2000/svg">
<path d="M12.0001 0.168945C5.3735 0.168945 0 5.67742 0 12.4728C0 17.9089 3.43839 22.5209 8.2064 24.1478C8.80613 24.2617 9.02631 23.8809 9.02631 23.5559C9.02631 23.2625 9.01518 22.2933 9.01001 21.2652C5.67157 22.0095 4.96712 19.8135 4.96712 19.8135C4.42125 18.3914 3.63473 18.0132 3.63473 18.0132C2.54596 17.2496 3.7168 17.2653 3.7168 17.2653C4.92181 17.3521 5.55632 18.5332 5.55632 18.5332C6.6266 20.4142 8.36359 19.8704 9.04836 19.556C9.15607 18.7608 9.46706 18.218 9.81024 17.9107C7.14486 17.5996 4.34295 16.5446 4.34295 11.8301C4.34295 10.4868 4.81172 9.38926 5.57937 8.52762C5.45477 8.21772 5.04402 6.96632 5.69562 5.27156C5.69562 5.27156 6.70331 4.94088 8.9965 6.53274C9.95372 6.26013 10.9803 6.12342 12.0001 6.11873C13.0199 6.12342 14.0473 6.26013 15.0063 6.53274C17.2967 4.94088 18.303 5.27156 18.303 5.27156C18.9562 6.96632 18.5452 8.21772 18.4206 8.52762C19.1901 9.38926 19.6557 10.4868 19.6557 11.8301C19.6557 16.5558 16.8484 17.5963 14.1762 17.901C14.6067 18.2828 14.9902 19.0315 14.9902 20.1794C14.9902 21.8257 14.9763 23.1507 14.9763 23.5559C14.9763 23.8833 15.1923 24.267 15.8006 24.1462C20.566 22.5174 24 17.9071 24 12.4728C24 5.67742 18.6273 0.168945 12.0001 0.168945Z" fill="white"/>
<path d="M4.58043 17.7501C4.55405 17.8106 4.46043 17.8288 4.37514 17.7872C4.28827 17.7475 4.23947 17.665 4.26764 17.6042C4.29342 17.5419 4.38724 17.5246 4.47392 17.5663C4.56099 17.6061 4.61058 17.6894 4.58043 17.7501Z" fill="white"/>
<path d="M5.06559 18.3004C5.00846 18.3543 4.89679 18.3293 4.82103 18.2441C4.74268 18.1592 4.728 18.0456 4.78592 17.991C4.84483 17.9371 4.95312 17.9623 5.03167 18.0473C5.11002 18.1332 5.12529 18.246 5.06559 18.3004Z" fill="white"/>
<path d="M5.53784 19.0021C5.46445 19.0539 5.34445 19.0053 5.27027 18.897C5.19688 18.7886 5.19688 18.6587 5.27186 18.6067C5.34624 18.5546 5.46445 18.6014 5.53963 18.709C5.61282 18.8191 5.61282 18.949 5.53784 19.0021Z" fill="white"/>
<path d="M6.18485 19.6799C6.1192 19.7535 5.97936 19.7338 5.87701 19.6333C5.77229 19.5351 5.74313 19.3957 5.80898 19.322C5.87543 19.2482 6.01606 19.269 6.1192 19.3686C6.22313 19.4667 6.25487 19.6071 6.18485 19.6799Z" fill="white"/>
<path d="M7.07741 20.0735C7.04845 20.1689 6.91377 20.2123 6.7781 20.1717C6.64263 20.13 6.55397 20.0182 6.58134 19.9218C6.60951 19.8258 6.74478 19.7806 6.88144 19.8239C7.01672 19.8655 7.10558 19.9765 7.07741 20.0735Z" fill="white"/>
<path d="M8.05764 20.1465C8.06101 20.247 7.94597 20.3303 7.80356 20.3321C7.66035 20.3354 7.54452 20.2541 7.54293 20.1552C7.54293 20.0537 7.65539 19.9712 7.7986 19.9688C7.94101 19.966 8.05764 20.0467 8.05764 20.1465Z" fill="white"/>
<path d="M8.96985 19.9886C8.98691 20.0866 8.88793 20.1873 8.74651 20.2141C8.60747 20.2399 8.47874 20.1794 8.46109 20.0822C8.44383 19.9817 8.54459 19.881 8.68344 19.855C8.82506 19.83 8.9518 19.8889 8.96985 19.9886Z" fill="white"/>
</svg>
