<svg width="26" height="26" viewBox="0 0 26 26" fill="none" xmlns="http://www.w3.org/2000/svg">
<path opacity="0.2" d="M7.16776 22.0335C7.09329 22.1091 7.00452 22.1692 6.90663 22.2102C6.80874 22.2512 6.70367 22.2723 6.59754 22.2723C6.49141 22.2723 6.38634 22.2512 6.28845 22.2102C6.19055 22.1692 6.10179 22.1091 6.02732 22.0335L3.96654 19.9727C3.89092 19.8983 3.83087 19.8095 3.78988 19.7116C3.74889 19.6137 3.72778 19.5086 3.72778 19.4025C3.72778 19.2964 3.74889 19.1913 3.78988 19.0934C3.83087 18.9955 3.89092 18.9068 3.96654 18.8323L14.6006 8.19824L17.8018 11.3995L7.16776 22.0335Z" fill="#009379"/>
<path d="M21.8032 13.0001V17.802" stroke="#009379" stroke-width="1.44817" stroke-linecap="round" stroke-linejoin="round"/>
<path d="M19.4023 15.4009H24.2042" stroke="#009379" stroke-width="1.44817" stroke-linecap="round" stroke-linejoin="round"/>
<path d="M8.59814 4.19672V8.19824" stroke="#009379" stroke-width="1.44817" stroke-linecap="round" stroke-linejoin="round"/>
<path d="M6.59766 6.19745H10.5992" stroke="#009379" stroke-width="1.44817" stroke-linecap="round" stroke-linejoin="round"/>
<path d="M17.0015 18.6022V21.8035" stroke="#009379" stroke-width="1.44817" stroke-linecap="round" stroke-linejoin="round"/>
<path d="M15.4009 20.2028H18.6021" stroke="#009379" stroke-width="1.44817" stroke-linecap="round" stroke-linejoin="round"/>
<path d="M18.8449 3.95977L3.96873 18.8359C3.65619 19.1484 3.65619 19.6552 3.96873 19.9677L6.03781 22.0368C6.35035 22.3493 6.85707 22.3493 7.16961 22.0368L22.0457 7.16065C22.3583 6.84811 22.3583 6.34139 22.0457 6.02885L19.9767 3.95977C19.6641 3.64723 19.1574 3.64723 18.8449 3.95977Z" stroke="#009379" stroke-width="1.44817" stroke-linecap="round" stroke-linejoin="round"/>
<path d="M14.6006 8.19824L17.8018 11.3995" stroke="#009379" stroke-width="1.44817" stroke-linecap="round" stroke-linejoin="round"/>
</svg>
